<svg xmlns="http://www.w3.org/2000/svg" xmlns:xlink="http://www.w3.org/1999/xlink" width="500" zoomAndPan="magnify" viewBox="0 0 375 374.999991" height="500" preserveAspectRatio="xMidYMid meet" version="1.0"><defs><g/><clipPath id="613d543539"><path d="M 119 110.152344 L 235 110.152344 L 235 264.652344 L 119 264.652344 Z M 119 110.152344 " clip-rule="nonzero"/></clipPath><clipPath id="e9c7c1d432"><path d="M 111.839844 179 L 158 179 L 158 242 L 111.839844 242 Z M 111.839844 179 " clip-rule="nonzero"/></clipPath><clipPath id="265d596646"><path d="M 243 138 L 263.339844 138 L 263.339844 174 L 243 174 Z M 243 138 " clip-rule="nonzero"/></clipPath></defs><rect x="-37.5" width="450" fill="#ffffff" y="-37.499999" height="449.999989" fill-opacity="1"/><rect x="-37.5" width="450" fill="#f4e8d2" y="-37.499999" height="449.999989" fill-opacity="1"/><g clip-path="url(#613d543539)"><path fill="#ffd1c7" d="M 162.746094 143.871094 C 176.707031 151.078125 178.257812 164.386719 179.871094 177.304688 C 181.605469 191.1875 186.765625 201.472656 200.578125 207.609375 C 213.355469 213.28125 220.835938 224.277344 223.8125 238.402344 C 225.582031 246.796875 228.933594 254.859375 231.574219 263.074219 C 230.410156 263.617188 229.25 264.15625 228.085938 264.699219 C 225.074219 258.828125 221.695312 253.113281 219.175781 247.039062 C 217.359375 242.667969 216.695312 237.824219 215.503906 233.191406 C 212.867188 222.929688 206.613281 216 195.910156 212.773438 C 211.015625 225.71875 211.039062 243.980469 213.636719 261.738281 C 207.679688 264.789062 203.847656 263.175781 202.175781 256.164062 C 201.304688 252.511719 199.871094 248.996094 198.960938 245.347656 C 196.421875 235.140625 192.105469 227.125 182.265625 221.023438 C 175.019531 216.53125 169.875 207.84375 165.234375 200.15625 C 159.78125 191.117188 156.394531 180.847656 151.078125 171.707031 C 148.878906 167.929688 144.285156 165.230469 140.292969 162.863281 C 130.042969 156.78125 122.484375 148.84375 119 136.300781 C 134.171875 149.558594 148.453125 162.039062 162.464844 174.289062 C 163.546875 166.648438 160.636719 160.300781 152.816406 155.960938 C 147.449219 152.976562 142.007812 149.808594 137.457031 145.757812 C 133.742188 142.449219 130.519531 138.066406 128.449219 133.535156 C 123.972656 123.726562 125.730469 120.636719 137.820312 115.125 C 138.769531 123.785156 137.765625 133.785156 149.222656 135.765625 C 147.140625 127.992188 144.957031 119.820312 142.773438 111.648438 C 144.226562 111.164062 145.679688 110.683594 147.132812 110.199219 C 148.234375 113.175781 150.210938 116.132812 150.265625 119.125 C 150.414062 127.140625 154.238281 131.492188 161.578125 134.132812 C 176.839844 139.621094 186.515625 150.246094 190.101562 166.359375 C 191.507812 172.671875 192.742188 179.476562 196.074219 184.785156 C 199.867188 190.824219 205.015625 197.28125 211.171875 200.3125 C 227.730469 208.476562 230.738281 223.773438 234.328125 239.054688 C 234.746094 240.820312 233.0625 243.082031 230.035156 245.351562 C 228.496094 240.738281 226.792969 236.171875 225.453125 231.503906 C 222.214844 220.230469 218.394531 210.503906 206.136719 204.613281 C 191.164062 197.421875 186.664062 181.738281 182.15625 166.734375 C 180.144531 160.039062 177.019531 153.527344 173.40625 147.539062 C 171.75 144.800781 167.679688 143.519531 164.707031 141.578125 C 164.054688 142.34375 163.402344 143.105469 162.746094 143.871094 Z M 177.917969 202.304688 C 178.554688 202.050781 179.191406 201.792969 179.828125 201.539062 C 177.175781 190.78125 173.59375 180.148438 172.109375 169.230469 C 170.386719 156.539062 164.074219 149.207031 152.511719 144.167969 C 145.007812 140.898438 138.773438 134.703125 130.730469 128.925781 C 134.210938 133.546875 136.59375 138.019531 140.164062 141.125 C 144.769531 145.128906 150.269531 148.132812 155.488281 151.40625 C 164.496094 157.050781 169.101562 164.398438 169.835938 175.691406 C 170.421875 184.699219 175.070312 193.445312 177.917969 202.304688 Z M 178.421875 206.742188 C 177.566406 207.714844 176.714844 208.683594 175.863281 209.65625 C 182.425781 214.484375 188.988281 219.3125 195.550781 224.140625 C 196.175781 223.34375 196.796875 222.546875 197.421875 221.75 C 191.089844 216.746094 184.753906 211.742188 178.421875 206.742188 Z M 178.421875 206.742188 " fill-opacity="1" fill-rule="nonzero"/></g><path fill="#ffd1c7" d="M 115.257812 170.835938 C 129.003906 180.542969 142.75 190.25 156.5 199.957031 C 155.949219 200.640625 155.398438 201.328125 154.851562 202.011719 C 149.792969 192.539062 146.050781 182.390625 136.398438 175.660156 C 126.269531 168.601562 117.574219 160.207031 117.449219 145.617188 C 119.535156 147.84375 121.671875 150.023438 123.699219 152.304688 C 130.40625 159.867188 137.644531 167.039062 143.613281 175.148438 C 151.199219 185.449219 158.484375 196.128906 164.425781 207.417969 C 167.652344 213.546875 169.964844 219.03125 176.609375 222.71875 C 190.664062 230.527344 197.171875 244.585938 193.449219 259.03125 C 181.171875 248.542969 169.34375 238.917969 158.160156 228.589844 C 154.855469 225.535156 152.539062 220.738281 151.242188 216.308594 C 147.921875 204.972656 140.910156 196.671875 132.511719 188.742188 C 126.371094 182.945312 121.792969 175.5 116.523438 168.789062 C 116.101562 169.472656 115.679688 170.15625 115.257812 170.835938 Z M 184.914062 242.152344 C 183.878906 228.628906 171.257812 227.164062 161.238281 222.769531 C 169.238281 229.316406 177.234375 235.863281 184.914062 242.152344 Z M 184.914062 242.152344 " fill-opacity="1" fill-rule="nonzero"/><path fill="#ffd1c7" d="M 183.160156 121.136719 C 196.003906 137.375 210.863281 152.453125 221.09375 170.199219 C 230.433594 186.40625 241.917969 203.191406 239.777344 224.824219 C 230.953125 222.714844 230.269531 215.859375 229.246094 209.792969 C 226.46875 193.355469 219.105469 179.039062 209.484375 165.785156 C 201.300781 154.507812 192.484375 143.691406 184.347656 132.382812 C 182.265625 129.484375 181.699219 125.492188 180.433594 122.003906 C 181.34375 121.714844 182.25 121.425781 183.160156 121.136719 Z M 183.160156 121.136719 " fill-opacity="1" fill-rule="nonzero"/><path fill="#ffd1c7" d="M 221.652344 202.066406 C 210.828125 196.894531 203.902344 188.238281 201.148438 178.585938 C 195.414062 158.484375 183.007812 144.269531 167.558594 131.382812 C 162.503906 127.167969 159.667969 120.300781 155.816406 114.648438 C 156.5625 114.054688 157.308594 113.460938 158.058594 112.867188 C 159.765625 114.164062 161.695312 115.253906 163.148438 116.792969 C 172.933594 127.15625 182.894531 137.378906 192.214844 148.148438 C 196.746094 153.386719 200.515625 159.453125 203.757812 165.605469 C 209.832031 177.117188 215.269531 188.964844 221.652344 202.066406 Z M 221.652344 202.066406 " fill-opacity="1" fill-rule="nonzero"/><path fill="#ffd1c7" d="M 237.335938 166.03125 C 243.617188 178.144531 249.894531 190.257812 256.175781 202.371094 C 255.769531 202.855469 255.367188 203.335938 254.964844 203.820312 C 251.6875 200.917969 247.863281 198.433594 245.265625 195.015625 C 241.144531 189.601562 237.535156 183.726562 234.273438 177.738281 C 230.578125 170.949219 226.027344 165.816406 219.875 160.539062 C 211.277344 153.171875 206.910156 140.863281 200.734375 130.667969 C 202.191406 129.632812 203.652344 128.597656 205.109375 127.5625 C 214.078125 142.242188 222.214844 157.6875 237.65625 166.367188 Z M 237.335938 166.03125 " fill-opacity="1" fill-rule="nonzero"/><g clip-path="url(#e9c7c1d432)"><path fill="#ffd1c7" d="M 111.839844 179.460938 C 132.511719 198.21875 148.140625 217.265625 157.105469 241.121094 C 152.078125 240.585938 115.238281 192.144531 111.839844 179.460938 Z M 111.839844 179.460938 " fill-opacity="1" fill-rule="nonzero"/></g><path fill="#ffd1c7" d="M 118.910156 199.617188 C 131.425781 218.675781 143.945312 237.734375 156.460938 256.792969 C 155.53125 257.480469 154.601562 258.167969 153.667969 258.851562 C 145.734375 257.109375 143.300781 250.140625 139.820312 243.707031 C 135.710938 236.117188 130.671875 229.019531 125.945312 221.769531 C 121.863281 215.503906 117.65625 209.324219 113.503906 203.109375 C 115.308594 201.945312 117.109375 200.78125 118.910156 199.617188 Z M 118.910156 199.617188 " fill-opacity="1" fill-rule="nonzero"/><path fill="#ffd1c7" d="M 237.65625 166.367188 C 235.167969 159.605469 232.59375 152.871094 230.21875 146.070312 C 228.789062 141.988281 227.671875 137.796875 226.410156 133.652344 C 227.636719 133.164062 228.859375 132.671875 230.082031 132.179688 C 240.652344 151.222656 251.222656 170.265625 261.789062 189.308594 C 261.476562 189.800781 261.164062 190.292969 260.847656 190.78125 C 256.667969 186.292969 252.515625 181.769531 248.292969 177.320312 C 244.683594 173.515625 240.992188 169.792969 237.339844 166.03125 Z M 237.65625 166.367188 " fill-opacity="1" fill-rule="nonzero"/><path fill="#ffd1c7" d="M 134.984375 252.375 C 128.648438 242.664062 122.316406 232.957031 115.253906 222.136719 C 125.914062 223.46875 133.273438 233.261719 137.976562 250.101562 C 136.980469 250.859375 135.980469 251.617188 134.984375 252.375 Z M 134.984375 252.375 " fill-opacity="1" fill-rule="nonzero"/><g clip-path="url(#265d596646)"><path fill="#ffd1c7" d="M 246.945312 138.972656 C 252.347656 149.964844 257.75 160.957031 263.152344 171.949219 C 261.921875 172.550781 260.6875 173.148438 259.457031 173.75 C 253.058594 163.230469 244.40625 153.796875 243.386719 140.703125 C 244.574219 140.125 245.757812 139.550781 246.945312 138.972656 Z M 246.945312 138.972656 " fill-opacity="1" fill-rule="nonzero"/></g><g fill="#ff6a29" fill-opacity="1"><g transform="translate(85.643748, 189.565152)"><g><path d="M 34.003906 -32.964844 C 29.578125 -32.429688 26.167969 -27.65625 24.28125 -24.082031 C 25.507812 -29.515625 22.726562 -32.039062 17.886719 -31.398438 C 13.671875 -30.882812 10.90625 -26.804688 9.292969 -23.398438 C 9.394531 -23.832031 9.488281 -24.410156 9.46875 -24.621094 C 10.597656 -31.109375 -1.046875 -31.144531 0.234375 -28.703125 C 1.90625 -25.015625 -4.605469 -7.117188 -4.191406 -4.03125 C -3.96875 -2.347656 -3.148438 -1.070312 -1.035156 -0.476562 C 2.445312 0.351562 7.257812 -1.421875 6.976562 -2.179688 C 6.214844 -3.601562 6.40625 -7.027344 6.863281 -10.6875 C 8.457031 -17.574219 16.0625 -30.3125 14.425781 -22.359375 C 12.964844 -14.777344 11.03125 -7.71875 11.457031 -5.34375 C 11.667969 -3.730469 12.28125 -2.433594 14.601562 -1.859375 C 17.878906 -0.941406 22.769531 -2.652344 22.480469 -3.476562 C 21.71875 -4.902344 21.671875 -7.808594 21.9375 -11.238281 C 23.199219 -17.882812 32.234375 -32.097656 30.625 -23.792969 C 29.011719 -16.335938 26.332031 -8.929688 26.691406 -6.476562 C 26.820312 -4.996094 27.714844 -3.726562 29.753906 -3.125 C 33.105469 -2.144531 38.132812 -3.9375 37.78125 -4.6875 C 36.226562 -7.816406 38.453125 -17.953125 40.347656 -24.648438 C 41.867188 -30.75 39.28125 -33.5 34.003906 -32.964844 Z M 34.003906 -32.964844 "/></g></g></g><g fill="#ff6a29" fill-opacity="1"><g transform="translate(132.766564, 185.401789)"><g><path d="M 1.78125 -7.964844 C -1.742188 -7.65625 -4.300781 -5.300781 -4.070312 -2.691406 C -3.847656 -0.15625 -0.914062 1.714844 2.609375 1.402344 C 5.917969 1.109375 8.550781 -1.253906 8.328125 -3.789062 C 8.097656 -6.394531 5.09375 -8.257812 1.78125 -7.964844 Z M 1.78125 -7.964844 "/></g></g></g><g fill="#ff6a29" fill-opacity="1"><g transform="translate(150.728171, 183.814857)"><g><path d="M 17.574219 -32.507812 C 9.648438 -32.230469 -1.484375 -28.835938 -1.6875 -21.503906 C -1.660156 -18.808594 0.425781 -16.863281 3.023438 -15.601562 C 5.785156 -14.070312 8.664062 -12.835938 11.042969 -11.625 C 13.109375 -10.742188 14.449219 -10.007812 14.511719 -8.523438 C 14.527344 -7.53125 12.449219 -6.140625 9.804688 -6.332031 C 6.609375 -6.335938 4.226562 -7.613281 4.054688 -8.734375 C 3.90625 -9.644531 4.359375 -10.113281 4.933594 -10.871094 C 5.328125 -11.191406 5.265625 -11.894531 4.753906 -12.0625 C 2.332031 -13.765625 -3.253906 -12.703125 -4.179688 -8.71875 C -5.34375 -3.433594 -0.4375 0.675781 9.035156 0.195312 C 17.722656 -0.289062 22.515625 -3.90625 23.085938 -7.082031 C 23.441406 -10.304688 21.851562 -12.226562 19.359375 -13.921875 C 15.742188 -16.300781 12.492188 -17.714844 10.695312 -18.765625 C 9.945312 -19.195312 8.222656 -20.25 7.886719 -21.640625 C 7.085938 -24.265625 9.136719 -27.570312 14.546875 -28.191406 C 16.367188 -28.496094 17.210938 -27.789062 16.722656 -26.894531 C 14.824219 -23.460938 13.84375 -22.519531 14.632812 -20.816406 C 16.269531 -17.554688 22.144531 -16.9375 23.699219 -19.417969 C 22.464844 -22.148438 24.632812 -24.113281 25.039062 -27.558594 C 25.375 -30.214844 22.621094 -32.457031 17.574219 -32.507812 Z M 17.574219 -32.507812 "/></g></g></g><g fill="#ff6a29" fill-opacity="1"><g transform="translate(182.777317, 180.983273)"><g><path d="M 20.304688 -28.132812 C 20.101562 -29.605469 19.328125 -30.320312 18.011719 -30.769531 C 17.070312 -30.972656 15.09375 -30.867188 12.773438 -30.589844 C 13.476562 -33.066406 14.085938 -35.039062 14.300781 -36.617188 C 15.84375 -44.847656 3.019531 -43.785156 4.292969 -41.414062 C 4.980469 -40.054688 4.179688 -35.441406 2.964844 -29.9375 C 1.3125 -30.148438 0.0664062 -30.605469 -0.847656 -31.304688 C -2.664062 -32.5625 -5.410156 -23.449219 0.976562 -23.515625 C 1.046875 -23.519531 1.257812 -23.539062 1.410156 -23.410156 C -0.167969 -16.386719 -1.890625 -9.347656 -1.546875 -6.253906 C -1.214844 -3.300781 0.589844 -0.550781 4.085938 -0.359375 C 11.292969 0.0664062 15.960938 -4.960938 16.765625 -8.722656 C 16.921875 -9.375 16.300781 -9.960938 15.601562 -9.828125 C 14.417969 -9.582031 12.476562 -6.640625 9.703125 -6.679688 C 7.335938 -6.964844 7.855469 -9.921875 9.726562 -17.683594 C 10.230469 -20 10.601562 -22.234375 11.191406 -24.417969 C 11.894531 -24.480469 12.679688 -24.40625 13.175781 -24.449219 C 16.015625 -24.417969 16.796875 -23.632812 17.84375 -22.234375 C 18.355469 -22.066406 20.59375 -25.671875 20.304688 -28.132812 Z M 20.304688 -28.132812 "/></g></g></g><g fill="#ff6a29" fill-opacity="1"><g transform="translate(208.205322, 178.736675)"><g><path d="M 16.78125 -30.234375 C 17.304688 -29.144531 17.199219 -26.296875 16.769531 -23.136719 C 15.957031 -17.878906 12.550781 -7.425781 8.441406 -6.496094 C 6.339844 -6.167969 5.679688 -8.027344 6.542969 -11.9375 C 7.484375 -14.929688 10.457031 -23.855469 10.226562 -26.460938 C 10.085938 -28.082031 9.539062 -29.453125 7.421875 -30.117188 C 3.980469 -31.304688 -0.828125 -29.460938 -0.613281 -28.628906 C 1.796875 -23.871094 -2.996094 -14.644531 -3.257812 -8.730469 C -3.546875 -2.382812 -0.511719 -0.167969 4.785156 -0.492188 C 9.015625 -0.796875 11.835938 -4.242188 13.628906 -7.238281 C 13.101562 -5.203125 12.75 -3.539062 12.226562 -2.214844 C 11.199219 1.425781 9.289062 8.691406 4.332031 8.847656 C 0.867188 9.011719 -0.582031 5.445312 1.066406 3.242188 C 0.289062 1.679688 -4.820312 1.703125 -5 7.683594 C -5.058594 11.023438 -1.785156 15.136719 3.777344 15.425781 C 11.476562 15.8125 17.730469 11.851562 20.839844 0.429688 C 22.53125 -5.328125 25.527344 -20.429688 26.957031 -25.953125 C 28.464844 -32.191406 15.777344 -32.773438 16.78125 -30.234375 Z M 16.78125 -30.234375 "/></g></g></g><g fill="#ff6a29" fill-opacity="1"><g transform="translate(241.170159, 175.824188)"><g><path d="M 2.601562 -43.679688 C 4.339844 -40.070312 -4.640625 -8.324219 -4.164062 -3.75 C -3.964844 -2.277344 -3.140625 -1 -1.03125 -0.40625 C 2.324219 0.574219 7.386719 -1.574219 7.113281 -2.261719 C 5.992188 -5.285156 6.628906 -10.949219 8 -17.105469 C 9.847656 -25.929688 12.3125 -35.023438 13.167969 -39.003906 C 14.636719 -47.296875 1.378906 -46.269531 2.601562 -43.679688 Z M 2.601562 -43.679688 "/></g></g></g><g fill="#ff6a29" fill-opacity="1"><g transform="translate(258.075211, 174.330604)"><g><path d="M 14.59375 -31.675781 C 13.589844 -31.800781 12.578125 -31.996094 11.664062 -31.914062 C 11.164062 -31.941406 10.8125 -31.910156 10.394531 -31.800781 C 4.09375 -30.820312 -1.945312 -25.246094 -3.75 -18.339844 C -6.117188 -9.753906 -2.273438 -1.644531 5.441406 -0.269531 C 10.652344 0.832031 17.175781 -0.878906 20.019531 -4.820312 C 22.042969 -7.628906 21.28125 -9.832031 19.738281 -10.40625 C 18.492188 -10.863281 17.042969 -10.378906 16.550781 -9.554688 C 15.058594 -7.152344 12.277344 -6.480469 9.910156 -6.769531 C 8.375 -7.269531 4.875 -9.09375 5.09375 -14.648438 C 5.109375 -15.289062 5.144531 -15.71875 5.164062 -16.289062 C 7.015625 -14.605469 10.195312 -13.964844 10.988281 -13.820312 C 14.726562 -13.300781 20.121094 -14.128906 22.328125 -18.089844 C 25.546875 -23.414062 22.710938 -30.617188 14.59375 -31.675781 Z M 14.054688 -20.125 C 13.125 -19.40625 11.9375 -19.160156 10.8125 -19.058594 C 8.980469 -18.898438 6.042969 -19.988281 6.042969 -19.988281 C 7.4375 -24.296875 10.160156 -27.238281 12.484375 -27.441406 C 13.964844 -27.574219 14.890625 -26.730469 15.394531 -25.851562 C 16.171875 -24.289062 15.875 -21.210938 14.054688 -20.125 Z M 14.054688 -20.125 "/></g></g></g><g fill="#ff6a29" fill-opacity="1"><g transform="translate(155.07912, 264.956684)"><g><path d="M 1.015625 -0.292969 L 1.164062 -0.0195312 L 1.40625 0.15625 L 4.464844 0.4375 L 4.707031 0.503906 L 5.535156 0.546875 L 6.355469 0.683594 L 6.613281 0.679688 L 6.910156 0.574219 L 7.058594 0.328125 L 7.113281 0.0742188 L 7.183594 -0.765625 L 7.238281 -1.019531 L 7.089844 -1.308594 L 6.695312 -1.484375 L 4.914062 -1.691406 L 4.652344 -1.675781 L 4.355469 -1.734375 L 4.054688 -1.734375 L 3.789062 -1.925781 L 3.710938 -2.359375 L 3.789062 -3.019531 L 3.941406 -3.292969 L 4.199219 -3.417969 L 4.726562 -3.363281 L 5 -3.363281 L 5.710938 -3.25 L 6.082031 -3.238281 L 6.363281 -3.183594 L 6.605469 -3.171875 L 6.894531 -3.292969 L 7.054688 -3.539062 L 7.1875 -4.605469 L 7.1875 -4.878906 L 7.09375 -5.148438 L 6.878906 -5.320312 L 6.339844 -5.386719 L 6.066406 -5.386719 L 5.78125 -5.414062 L 5.472656 -5.472656 L 4.402344 -5.570312 L 4.1875 -5.742188 L 4.050781 -6 L 4.066406 -6.421875 L 4.238281 -6.800781 L 4.671875 -6.882812 L 7.269531 -6.632812 L 7.570312 -6.753906 L 7.742188 -6.980469 L 7.773438 -7.539062 L 7.757812 -7.800781 L 7.800781 -8.097656 L 7.867188 -8.347656 L 7.757812 -8.632812 L 7.488281 -8.785156 L 6.40625 -8.90625 L 6.160156 -8.902344 L 5.894531 -8.972656 L 5.296875 -9.003906 L 5.027344 -9.058594 L 4.5 -9.097656 L 4.257812 -9.148438 L 2.480469 -9.289062 L 2.082031 -9.234375 L 1.914062 -8.949219 L 1.886719 -8.40625 L 1.792969 -8.019531 L 1.777344 -7.324219 L 1.722656 -7.042969 L 1.726562 -6.796875 L 1.480469 -4.375 L 1.410156 -4.09375 L 1.398438 -3.5625 L 1.316406 -3.023438 L 1.328125 -2.734375 L 1.269531 -2.441406 L 1.257812 -2.183594 L 1.195312 -1.941406 L 1.191406 -1.628906 L 1.164062 -1.359375 L 1.136719 -0.828125 L 1.09375 -0.558594 Z M 1.015625 -0.292969 "/></g></g></g><g fill="#ff6a29" fill-opacity="1"><g transform="translate(163.015763, 265.763791)"><g><path d="M 3.933594 0.3125 L 4.324219 0.375 L 4.757812 0.382812 L 6.101562 0.195312 L 6.828125 -0.148438 L 7.28125 -0.425781 L 7.683594 -0.839844 L 7.976562 -1.257812 L 8.097656 -1.496094 L 8.195312 -1.765625 L 8.246094 -2.007812 L 8.304688 -2.847656 L 8.277344 -3.121094 L 8.222656 -3.382812 L 7.976562 -3.902344 L 7.675781 -4.339844 L 7.453125 -4.539062 L 6.75 -4.902344 L 5.652344 -5.234375 L 4.289062 -5.480469 L 3.730469 -5.714844 L 3.53125 -5.835938 L 3.324219 -6.0625 L 3.332031 -6.429688 L 3.390625 -6.78125 L 3.550781 -6.964844 L 3.789062 -7.128906 L 3.984375 -7.199219 L 4.230469 -7.242188 L 5.101562 -7.222656 L 5.394531 -7.097656 L 5.589844 -6.925781 L 6.011719 -6.425781 L 6.425781 -6.269531 L 7.320312 -6.195312 L 7.566406 -6.210938 L 7.824219 -6.167969 L 8.089844 -6.316406 L 8.226562 -6.570312 L 8.144531 -7.105469 L 7.953125 -7.605469 L 7.789062 -7.832031 L 7.664062 -8.054688 L 7.496094 -8.269531 L 6.660156 -8.910156 L 5.925781 -9.207031 L 5.644531 -9.277344 L 5.402344 -9.316406 L 5.105469 -9.402344 L 4.34375 -9.425781 L 3.261719 -9.265625 L 3.011719 -9.183594 L 2.785156 -9.058594 L 2.566406 -8.988281 L 2.285156 -8.839844 L 2.085938 -8.671875 L 1.832031 -8.523438 L 1.671875 -8.300781 L 1.484375 -8.132812 L 1.378906 -7.894531 L 1.230469 -7.683594 L 1 -6.90625 L 0.964844 -5.996094 L 1.042969 -5.609375 L 1.191406 -5.125 L 1.507812 -4.660156 L 1.871094 -4.285156 L 2.332031 -3.976562 L 3.09375 -3.679688 L 3.574219 -3.542969 L 4.683594 -3.40625 L 4.925781 -3.351562 L 5.199219 -3.324219 L 5.675781 -3.09375 L 5.855469 -2.921875 L 5.90625 -2.566406 L 5.808594 -2.214844 L 5.578125 -2.039062 L 5.355469 -1.925781 L 4.847656 -1.804688 L 4.464844 -1.808594 L 4.058594 -1.859375 L 3.75 -1.957031 L 3.550781 -2.0625 L 3.316406 -2.222656 L 3.121094 -2.425781 L 2.933594 -2.707031 L 2.667969 -2.828125 L 1.636719 -2.910156 L 1.363281 -2.898438 L 1.09375 -2.925781 L 0.8125 -2.816406 L 0.703125 -2.535156 L 0.714844 -2.238281 L 0.757812 -1.988281 L 0.945312 -1.433594 L 1.265625 -0.996094 L 1.636719 -0.582031 L 1.859375 -0.421875 L 2.8125 0.078125 L 3.109375 0.136719 L 3.363281 0.242188 Z M 3.933594 0.3125 "/></g></g></g><g fill="#ff6a29" fill-opacity="1"><g transform="translate(171.863082, 266.208016)"><g><path d="M 2.613281 -0.410156 L 2.71875 -0.125 L 3.003906 0.0117188 L 3.261719 -0.015625 L 3.535156 0.015625 L 3.792969 -0.0117188 L 4.636719 -0.0078125 L 4.910156 -0.117188 L 5.019531 -0.386719 L 5.007812 -0.644531 L 5.035156 -0.957031 L 5.023438 -1.503906 L 4.984375 -1.734375 L 5.027344 -2.019531 L 5.054688 -2.847656 L 5.03125 -3.09375 L 5.074219 -3.664062 L 5.03125 -6.371094 L 5.070312 -6.640625 L 5.046875 -6.941406 L 5.15625 -7.1875 L 5.457031 -7.308594 L 5.6875 -7.320312 L 5.957031 -7.304688 L 6.203125 -7.332031 L 6.949219 -7.3125 L 7.265625 -7.433594 L 7.402344 -7.707031 L 7.375 -7.992188 L 7.40625 -9.105469 L 7.273438 -9.378906 L 7 -9.515625 L 6.675781 -9.492188 L 6.457031 -9.519531 L 6.199219 -9.519531 L 5.898438 -9.480469 L 5.628906 -9.480469 L 5.355469 -9.511719 L 5.082031 -9.511719 L 4.769531 -9.472656 L 0.71875 -9.515625 L 0.417969 -9.378906 L 0.28125 -9.109375 L 0.261719 -7.75 L 0.410156 -7.449219 L 0.683594 -7.3125 L 1.035156 -7.351562 L 2.246094 -7.332031 L 2.492188 -7.183594 L 2.625 -6.925781 L 2.660156 -5.429688 L 2.617188 -5.007812 L 2.644531 -4.75 L 2.617188 -4.476562 L 2.613281 -3.933594 L 2.652344 -3.539062 L 2.597656 -3.128906 L 2.609375 -2.859375 L 2.59375 -2.574219 L 2.632812 -1.742188 L 2.601562 -1.472656 Z M 2.613281 -0.410156 "/></g></g></g><g fill="#ff6a29" fill-opacity="1"><g transform="translate(179.59196, 266.206022)"><g><path d="M 1.714844 0.00390625 L 2.054688 0.0078125 L 2.203125 -0.0390625 L 2.339844 -0.0429688 L 2.488281 -0.101562 L 2.660156 -0.214844 L 2.765625 -0.273438 L 2.886719 -0.386719 L 3.003906 -0.523438 L 3.09375 -0.664062 L 3.207031 -1.089844 L 3.210938 -1.402344 L 3.152344 -1.5625 L 3.117188 -1.710938 L 3.03125 -1.886719 L 2.933594 -2.019531 L 2.835938 -2.097656 L 2.734375 -2.230469 L 2.585938 -2.308594 L 2.460938 -2.386719 L 2.296875 -2.40625 L 2.117188 -2.46875 L 1.96875 -2.480469 L 1.65625 -2.457031 L 1.355469 -2.394531 L 1.183594 -2.335938 L 1.074219 -2.277344 L 0.808594 -2.039062 L 0.597656 -1.800781 L 0.5625 -1.664062 L 0.5 -1.511719 L 0.53125 -0.859375 L 0.578125 -0.710938 L 0.648438 -0.5625 L 0.734375 -0.457031 L 0.886719 -0.339844 L 0.957031 -0.234375 L 1.277344 -0.0664062 L 1.398438 -0.0273438 L 1.578125 0.0078125 Z M 1.714844 0.00390625 "/></g></g></g><g fill="#ff6a29" fill-opacity="1"><g transform="translate(183.536452, 266.086997)"><g/></g></g><g fill="#ff6a29" fill-opacity="1"><g transform="translate(187.348395, 265.921877)"><g><path d="M 1.085938 -0.0664062 L 1.394531 -0.132812 L 4.863281 -0.40625 L 5.078125 -0.449219 L 6.71875 -0.566406 L 6.980469 -0.738281 L 7.0625 -1.015625 L 7.070312 -1.277344 L 7.019531 -1.546875 L 7.035156 -1.820312 L 6.976562 -2.359375 L 6.839844 -2.648438 L 6.371094 -2.71875 L 4.664062 -2.585938 L 4.332031 -2.636719 L 4.3125 -2.855469 L 4.441406 -3.125 L 5.015625 -4.046875 L 5.199219 -4.296875 L 5.304688 -4.507812 L 5.992188 -5.6875 L 6.050781 -5.980469 L 6.25 -6.515625 L 6.3125 -7.054688 L 6.289062 -7.3125 L 6.113281 -8.113281 L 5.53125 -9.003906 L 5.335938 -9.195312 L 5.117188 -9.367188 L 4.359375 -9.75 L 4.121094 -9.851562 L 3.71875 -9.902344 L 2.832031 -9.90625 L 2.1875 -9.808594 L 1.683594 -9.628906 L 1.214844 -9.371094 L 0.984375 -9.1875 L 0.449219 -8.570312 L 0.347656 -8.339844 L 0.0742188 -7.527344 L 0.0859375 -7.253906 L 0.0546875 -6.980469 L 0.210938 -6.746094 L 0.46875 -6.617188 L 1.796875 -6.71875 L 2.042969 -6.863281 L 2.183594 -7.121094 L 2.261719 -7.359375 L 2.460938 -7.554688 L 2.65625 -7.667969 L 3.046875 -7.726562 L 3.414062 -7.730469 L 3.617188 -7.597656 L 3.800781 -7.382812 L 3.867188 -7.101562 L 3.871094 -6.855469 L 3.828125 -6.582031 L 3.699219 -6.1875 L 3.511719 -5.828125 L 3.3125 -5.609375 L 2.941406 -4.839844 L 2.367188 -3.886719 L 2.265625 -3.648438 L 1.820312 -2.941406 L 1.710938 -2.660156 L 1.550781 -2.453125 L 1.460938 -2.199219 L 1.292969 -1.96875 L 1.175781 -1.738281 L 1.0625 -1.46875 L 0.875 -1.25 L 0.589844 -0.761719 L 0.480469 -0.421875 L 0.5625 -0.128906 Z M 1.085938 -0.0664062 "/></g></g></g><g fill="#ff6a29" fill-opacity="1"><g transform="translate(195.325237, 265.241928)"><g><path d="M 3.925781 -0.382812 L 4.375 -0.414062 L 4.882812 -0.523438 L 5.496094 -0.746094 L 5.96875 -1 L 6.65625 -1.503906 L 6.816406 -1.734375 L 7.191406 -2.414062 L 7.40625 -2.953125 L 7.460938 -3.46875 L 6.917969 -7.769531 L 6.738281 -8.308594 L 6.582031 -8.546875 L 6.449219 -8.804688 L 6.152344 -9.191406 L 5.921875 -9.378906 L 5.769531 -9.5625 L 5.53125 -9.722656 L 4.761719 -10.03125 L 4.519531 -10.105469 L 4.222656 -10.164062 L 3.695312 -10.203125 L 2.625 -10.097656 L 1.578125 -9.722656 L 1.347656 -9.597656 L 1.152344 -9.417969 L 0.914062 -9.25 L 0.558594 -8.84375 L 0.410156 -8.617188 L 0.234375 -8.402344 L 0.140625 -8.167969 L 0.0664062 -7.914062 L -0.117188 -6.832031 L -0.0234375 -6.035156 L 0.0742188 -5.746094 L 0.113281 -4.941406 L 0.203125 -4.679688 L 0.199219 -4.402344 L 0.277344 -4.140625 L 0.511719 -2.511719 L 0.714844 -2.019531 L 0.882812 -1.792969 L 1.007812 -1.578125 L 1.402344 -1.207031 L 1.605469 -1.027344 L 1.84375 -0.867188 L 2.105469 -0.765625 L 2.3125 -0.644531 L 2.605469 -0.53125 L 3.363281 -0.402344 Z M 4.464844 -2.691406 L 4.042969 -2.578125 L 3.632812 -2.5625 L 3.335938 -2.621094 L 3.132812 -2.714844 L 2.941406 -2.910156 L 2.808594 -3.167969 L 2.644531 -3.570312 L 2.21875 -6.707031 L 2.234375 -7.109375 L 2.335938 -7.382812 L 2.484375 -7.59375 L 2.894531 -7.898438 L 3.714844 -8.023438 L 3.984375 -7.964844 L 4.234375 -7.832031 L 4.414062 -7.636719 L 4.539062 -7.40625 L 4.660156 -7.027344 L 4.800781 -6.386719 L 4.890625 -5.3125 L 4.980469 -5.078125 L 4.976562 -4.804688 L 5 -4.53125 L 5.070312 -4.308594 L 5.109375 -3.902344 L 5.101562 -3.476562 L 5.050781 -3.222656 L 4.878906 -2.980469 L 4.695312 -2.816406 Z M 4.464844 -2.691406 "/></g></g></g><g fill="#ff6a29" fill-opacity="1"><g transform="translate(204.158533, 264.030194)"><g><path d="M 1.074219 -0.171875 L 1.375 -0.269531 L 4.800781 -0.875 L 5.011719 -0.941406 L 6.632812 -1.214844 L 6.875 -1.414062 L 6.929688 -1.699219 L 6.910156 -1.960938 L 6.835938 -2.222656 L 6.824219 -2.496094 L 6.710938 -3.027344 L 6.550781 -3.304688 L 6.078125 -3.324219 L 4.390625 -3.027344 L 4.054688 -3.046875 L 4.015625 -3.261719 L 4.113281 -3.542969 L 4.597656 -4.515625 L 4.753906 -4.78125 L 4.839844 -5.003906 L 5.410156 -6.246094 L 5.4375 -6.539062 L 5.585938 -7.09375 L 5.59375 -7.632812 L 5.546875 -7.886719 L 5.292969 -8.671875 L 4.625 -9.5 L 4.414062 -9.671875 L 4.179688 -9.820312 L 3.390625 -10.128906 L 3.140625 -10.207031 L 2.738281 -10.214844 L 1.855469 -10.136719 L 1.21875 -9.976562 L 0.738281 -9.75 L 0.292969 -9.445312 L 0.0820312 -9.238281 L -0.386719 -8.570312 L -0.46875 -8.335938 L -0.65625 -7.496094 L -0.621094 -7.226562 L -0.625 -6.949219 L -0.445312 -6.734375 L -0.179688 -6.632812 L 1.132812 -6.863281 L 1.363281 -7.03125 L 1.480469 -7.300781 L 1.53125 -7.542969 L 1.714844 -7.757812 L 1.898438 -7.890625 L 2.28125 -7.988281 L 2.644531 -8.027344 L 2.859375 -7.914062 L 3.0625 -7.71875 L 3.15625 -7.445312 L 3.1875 -7.203125 L 3.167969 -6.921875 L 3.078125 -6.519531 L 2.925781 -6.144531 L 2.75 -5.902344 L 2.457031 -5.101562 L 1.976562 -4.101562 L 1.898438 -3.851562 L 1.527344 -3.105469 L 1.441406 -2.8125 L 1.304688 -2.59375 L 1.242188 -2.332031 L 1.09375 -2.082031 L 1 -1.84375 L 0.914062 -1.566406 L 0.75 -1.328125 L 0.511719 -0.8125 L 0.4375 -0.46875 L 0.546875 -0.183594 Z M 1.074219 -0.171875 "/></g></g></g><g fill="#ff6a29" fill-opacity="1"><g transform="translate(212.031182, 262.576052)"><g><path d="M 3.871094 -0.761719 L 4.316406 -0.839844 L 4.808594 -0.996094 L 5.398438 -1.277344 L 5.84375 -1.578125 L 6.480469 -2.148438 L 6.617188 -2.390625 L 6.921875 -3.105469 L 7.085938 -3.660156 L 7.089844 -4.175781 L 6.128906 -8.40625 L 5.894531 -8.925781 L 5.71875 -9.148438 L 5.5625 -9.390625 L 5.226562 -9.746094 L 4.976562 -9.910156 L 4.8125 -10.082031 L 4.558594 -10.214844 L 3.761719 -10.445312 L 3.511719 -10.5 L 3.210938 -10.527344 L 2.683594 -10.511719 L 1.628906 -10.304688 L 0.625 -9.832031 L 0.40625 -9.679688 L 0.230469 -9.484375 L 0.0117188 -9.292969 L -0.304688 -8.855469 L -0.429688 -8.617188 L -0.585938 -8.386719 L -0.65625 -8.144531 L -0.703125 -7.882812 L -0.78125 -6.789062 L -0.609375 -6.003906 L -0.488281 -5.726562 L -0.367188 -4.929688 L -0.253906 -4.675781 L -0.230469 -4.402344 L -0.128906 -4.148438 L 0.261719 -2.550781 L 0.515625 -2.078125 L 0.703125 -1.871094 L 0.847656 -1.667969 L 1.277344 -1.335938 L 1.496094 -1.179688 L 1.75 -1.042969 L 2.019531 -0.96875 L 2.242188 -0.863281 L 2.539062 -0.78125 L 3.308594 -0.726562 Z M 4.183594 -3.113281 L 3.769531 -2.960938 L 3.363281 -2.90625 L 3.066406 -2.933594 L 2.851562 -3.007812 L 2.644531 -3.183594 L 2.488281 -3.425781 L 2.285156 -3.808594 L 1.554688 -6.894531 L 1.53125 -7.292969 L 1.605469 -7.574219 L 1.730469 -7.800781 L 2.113281 -8.140625 L 2.917969 -8.347656 L 3.191406 -8.3125 L 3.453125 -8.207031 L 3.648438 -8.03125 L 3.796875 -7.8125 L 3.953125 -7.445312 L 4.15625 -6.824219 L 4.351562 -5.765625 L 4.460938 -5.539062 L 4.484375 -5.265625 L 4.53125 -5 L 4.625 -4.78125 L 4.707031 -4.382812 L 4.738281 -3.957031 L 4.714844 -3.699219 L 4.566406 -3.441406 L 4.398438 -3.261719 Z M 4.183594 -3.113281 "/></g></g></g></svg>